<?xml version="1.0" encoding="UTF-8" standalone="no"?>
<!-- Created with Inkscape (http://www.inkscape.org/) -->

<svg
   width="21.885485mm"
   height="11.153971mm"
   viewBox="0 0 21.885485 11.153971"
   version="1.1"
   id="svg1"
   xml:space="preserve"
   inkscape:version="1.3.2 (091e20e, 2023-11-25, custom)"
   sodipodi:docname="JAJO.svg"
   xmlns:inkscape="http://www.inkscape.org/namespaces/inkscape"
   xmlns:sodipodi="http://sodipodi.sourceforge.net/DTD/sodipodi-0.dtd"
   xmlns="http://www.w3.org/2000/svg"
   xmlns:svg="http://www.w3.org/2000/svg"><sodipodi:namedview
     id="namedview1"
     pagecolor="#ffffff"
     bordercolor="#000000"
     borderopacity="0.25"
     inkscape:showpageshadow="2"
     inkscape:pageopacity="0.0"
     inkscape:pagecheckerboard="0"
     inkscape:deskcolor="#d1d1d1"
     inkscape:document-units="mm"
     showguides="true"
     inkscape:zoom="1.0384862"
     inkscape:cx="794.42557"
     inkscape:cy="2599.4568"
     inkscape:window-width="1898"
     inkscape:window-height="994"
     inkscape:window-x="0"
     inkscape:window-y="14"
     inkscape:window-maximized="0"
     inkscape:current-layer="layer1" /><defs
     id="defs1" /><g
     inkscape:label="Warstwa 1"
     inkscape:groupmode="layer"
     id="layer1"
     transform="translate(-176.75502,-610.13145)"><g
       id="g34"
       transform="translate(39.984934,495.02943)"
       inkscape:export-filename="glass_rect.png"
       inkscape:export-xdpi="200"
       inkscape:export-ydpi="200"><path
         id="path28"
         style="fill:#cfe8eb"
         d="m 142.32634,115.31802 -2.56935,0.14417 c -1.41318,0.0792 -2.66334,0.23803 -2.77813,0.35244 -0.11479,0.11442 -0.24508,2.25213 -0.28938,4.75061 l -0.0806,4.54236 0.36742,0.49816 0.3669,0.49816 5.93091,0.19275 c 3.26203,0.1061 7.95548,0.13544 10.42934,0.0651 2.47382,-0.0703 4.61144,-0.23247 4.75009,-0.36071 0.13865,-0.12824 0.29962,-0.98558 0.35812,-1.90479 0.0585,-0.91922 -0.0226,-3.08321 -0.18035,-4.80901 -0.15773,-1.72579 -0.40176,-3.25275 -0.5426,-3.39359 -0.14084,-0.14084 -1.18526,-0.32819 -2.32079,-0.41599 z m 12.58321,7.8052 c 0.15407,0 0.20669,0.11907 0.11679,0.26459 -0.0899,0.14552 -0.2164,0.26458 -0.2806,0.26458 -0.0642,0 -0.11627,-0.11906 -0.11627,-0.26458 0,-0.14552 0.12597,-0.26459 0.28008,-0.26459 z"
         sodipodi:nodetypes="ccssccccsssssccsssss" /><path
         id="path29"
         style="fill:#a8c6c9"
         d="m 148.76419,115.2467 c -0.82053,-0.005 -1.67995,-0.002 -2.52749,0.008 -1.6951,0.0201 -3.34208,0.0688 -4.53151,0.1416 -2.56406,0.15684 -4.44939,0.38865 -4.63021,0.56947 l -0.30489,0.30541 v 4.59455 c 0,2.52721 0.0988,4.69446 0.21963,4.81573 0.12079,0.12126 1.07328,0.2906 2.11666,0.3762 1.04338,0.0856 5.70708,0.17301 10.36371,0.19431 4.97906,0.0228 8.63015,-0.0653 8.86354,-0.21343 l 0.39688,-0.25166 -0.0625,-4.00079 c -0.0342,-2.20045 -0.1836,-4.45103 -0.33176,-5.00125 l -0.26924,-1.00045 -0.99115,-0.1726 c -0.5452,-0.0949 -3.25334,-0.24158 -6.01824,-0.32608 -0.69122,-0.0211 -1.47287,-0.0338 -2.2934,-0.0388 z m -2.6789,1.36478 c 4.18995,-0.0193 6.96329,0.008 6.16293,0.0599 -0.80037,0.0523 -3.20488,0.22037 -5.34283,0.37311 -2.13796,0.15273 -4.51921,0.46276 -5.29167,0.68936 -0.77246,0.2266 -1.68009,0.66715 -2.01693,0.97875 -0.33683,0.31161 -0.83237,1.04458 -1.10174,1.62884 l -0.48989,1.06195 -0.0181,-1.98437 c -0.01,-1.09141 0.0934,-2.16139 0.23048,-2.37815 l 0.2496,-0.39429 z m 10.92543,3.74189 v 0.71417 c 0,0.42117 -0.33638,1.09661 -0.81907,1.64641 l -0.81856,0.93276 -1.34565,0.39946 c -0.74032,0.21984 -2.00914,0.38878 -2.81947,0.37568 l -1.47329,-0.0238 1.94665,-0.35243 c 1.1838,-0.21439 2.41725,-0.64585 3.14709,-1.10071 0.66013,-0.41141 1.42081,-1.16313 1.69085,-1.67018 z"
         sodipodi:nodetypes="cssccsssscccccssccscsssccsccscsccsscsscc" /><path
         id="path30"
         style="fill:#96bcc2"
         d="m 147.9937,115.25497 c -0.8904,0.009 -1.81639,0.0275 -2.75694,0.0553 -3.34698,0.0989 -6.55463,0.26079 -7.12773,0.36019 l -1.0418,0.18087 -0.23771,0.91777 c -0.13084,0.50484 -0.19793,2.66736 -0.14883,4.80539 0.0491,2.13803 0.18825,3.98622 0.30903,4.10724 0.12079,0.12102 1.07328,0.29009 2.11666,0.37569 1.04338,0.0856 5.58798,0.17332 10.09913,0.19482 4.51112,0.0215 8.48101,-0.0358 8.8222,-0.12712 l 0.62063,-0.16588 -0.0915,-4.71599 -0.091,-4.716 -0.41342,-0.41289 -0.41341,-0.4129 -3.15846,-0.28577 c -0.9764,-0.0883 -2.34679,-0.14244 -3.94343,-0.16071 -0.79832,-0.009 -1.65312,-0.009 -2.54351,0 z m 0.14779,1.05058 c 0.80362,-0.004 1.56156,-0.002 2.23294,0.007 1.34276,0.0173 2.34011,0.059 2.66754,0.12144 l 1.19062,0.22686 -4.53616,0.33021 c -2.54684,0.18532 -5.30354,0.54268 -6.2854,0.81494 -0.96183,0.26671 -2.20312,0.80007 -2.75849,1.18494 -0.55537,0.38487 -1.27975,1.06471 -1.60972,1.51102 -0.32997,0.44631 -0.55483,0.85635 -0.50023,0.91105 0.0547,0.0546 1.10688,-0.24791 2.33836,-0.67179 1.23147,-0.42387 3.66789,-1.1226 5.41414,-1.55288 1.74625,-0.43028 3.94891,-0.86051 4.89479,-0.95601 0.94589,-0.0955 1.94516,-0.23798 2.22106,-0.31678 l 0.50177,-0.14366 -0.18241,1.14257 c -0.10046,0.62829 -0.42216,1.52965 -0.71469,2.00298 -0.29254,0.47333 -1.13377,1.40122 -1.86913,2.0624 -0.73539,0.66118 -1.22697,1.20251 -1.09244,1.20251 0.13454,0 0.94724,-0.1301 1.80609,-0.28887 0.85886,-0.15877 1.98203,-0.50302 2.49597,-0.76533 0.51394,-0.26227 1.14413,-0.70831 1.39991,-0.99115 0.25578,-0.28283 0.69722,-0.98039 0.98134,-1.54978 l 0.51676,-1.03507 0.0103,0.58962 c 0.006,0.32448 -0.18167,1.07036 -0.41651,1.65727 -0.23483,0.5869 -0.74159,1.29116 -1.12655,1.56528 -0.38497,0.27411 -1.23475,0.65105 -1.88826,0.83715 -0.65351,0.1861 -2.79541,0.35833 -4.75991,0.38293 -1.96453,0.0246 -4.64344,-0.0573 -5.95313,-0.1819 -1.30968,-0.1246 -2.7776,-0.35638 -3.26181,-0.51522 -0.49895,-0.16366 -1.10805,-0.6495 -1.4056,-1.12138 l -0.52504,-0.8325 0.0827,1.38906 0.0827,1.38906 h -0.36225 -0.36226 l 0.17105,-2.57969 c 0.094,-1.41883 0.23918,-3.15301 0.32298,-3.85351 l 0.15245,-1.27331 0.70021,-0.26716 c 0.38525,-0.14691 3.49873,-0.32654 6.91844,-0.39894 0.85494,-0.0181 1.70424,-0.0288 2.50786,-0.0331 z"
         sodipodi:nodetypes="cscccsssscccccccccccccccssscssscccsssssscccsssssssccccccsccscc" /><path
         id="path31"
         style="fill:#8eb1b5"
         d="m 148.03555,115.10201 -5.32629,0.27802 c -3.32501,0.17354 -5.44149,0.39322 -5.63273,0.58446 l -0.30644,0.30644 v 4.59507 c 0,2.52718 0.0984,4.69394 0.21911,4.81521 0.1207,0.12126 1.13274,0.29017 2.24896,0.37517 1.11623,0.085 5.66126,0.17272 10.09964,0.19482 4.43839,0.0221 8.35032,-0.0352 8.69353,-0.12713 l 0.62425,-0.16691 -0.0982,-4.71754 -0.0977,-4.71806 -0.43873,-0.43822 -0.43822,-0.43821 -4.77386,-0.27182 z m -1.74046,1.14928 c 3.78354,-0.003 7.59354,0.0977 8.46667,0.22376 l 1.5875,0.22893 -1.12448,0.0346 -1.12448,0.0351 v 0.66146 c 0,0.36381 0.12728,0.66146 0.28319,0.66146 0.15592,0 0.0964,0.1868 -0.13229,0.41548 -0.22867,0.22867 -0.40708,0.61563 -0.39688,0.85989 0.0102,0.24427 0.13119,0.68255 0.26872,0.97359 l 0.2496,0.52916 -0.13385,-0.69815 -0.13384,-0.69814 1.21543,-0.18191 1.21491,-0.18241 -0.12247,-0.64131 -0.12247,-0.64079 h 0.37775 0.37827 l -0.17208,0.54157 c -0.0946,0.29803 -0.0277,0.71594 0.14883,0.92863 0.19862,0.23938 0.26493,0.80537 0.17363,1.4857 -0.0811,0.60447 -0.37679,1.40695 -0.65732,1.78335 -0.28053,0.3764 -0.85506,0.88584 -1.27641,1.13223 -0.42135,0.24638 -1.58877,0.57965 -2.59467,0.74001 -1.00589,0.16041 -4.12869,0.26969 -6.93912,0.24339 -2.8104,-0.0263 -5.04597,-0.15065 -4.96817,-0.27647 0.0778,-0.12581 -0.0346,-0.22841 -0.24959,-0.22841 -0.21496,0 -0.59862,-0.0797 -0.85267,-0.17725 -0.2922,-0.11206 -0.39858,-0.0749 -0.28938,0.10181 0.095,0.1537 -0.0938,0.35091 -0.41962,0.43821 -0.32579,0.0874 -0.80401,0.16078 -1.06246,0.16278 l -0.46974,0.004 0.0729,-4.02456 0.0734,-4.02456 0.92604,-0.20258 c 0.50933,-0.11152 4.0217,-0.20525 7.80521,-0.20825 z m 9.57616,5.02037 c -0.21424,0 -0.37263,0.20836 -0.35243,0.46302 0.0231,0.29146 -0.15034,0.46326 -0.46767,0.46405 -0.2839,7e-4 -0.53505,0.21098 -0.57465,0.48111 l -0.0703,0.47956 0.82476,-0.63614 c 0.45356,-0.34977 0.87058,-0.77423 0.92708,-0.94361 0.0565,-0.16939 -0.0726,-0.30799 -0.28681,-0.30799 z m -4.46743,1.85208 c -0.11772,0 -0.21394,0.10047 -0.21394,0.22376 0,0.12328 -0.26789,0.35369 -0.59531,0.5116 l -0.59531,0.2868 0.44752,0.0181 c 0.24607,0.01 0.52791,-0.1126 0.62631,-0.27182 0.0984,-0.1593 0.48988,-0.2298 0.87024,-0.1571 l 0.69143,0.13229 -0.5085,-0.37207 c -0.27971,-0.20452 -0.60473,-0.37155 -0.72244,-0.37155 z m 2.03089,0.12506 c -0.0445,-0.0184 -0.12953,-0.007 -0.24702,0.0382 -0.22584,0.0867 -0.41031,0.20428 -0.41031,0.26148 0,0.0572 0.11164,0.10439 0.24857,0.10439 0.13694,0 0.32192,-0.11815 0.41082,-0.262 0.0464,-0.075 0.0428,-0.12356 -0.002,-0.14211 z m -15.1319,0.50281 c -0.0479,0.0212 -0.0775,0.0728 -0.0775,0.14986 0,0.15411 0.11906,0.2806 0.26458,0.2806 0.14553,0 0.26459,-0.0526 0.26459,-0.11678 0,-0.0642 -0.11906,-0.19019 -0.26459,-0.28009 -0.0728,-0.045 -0.13911,-0.0547 -0.18707,-0.0336 z m 1.75235,0.99219 c 0.0919,0.004 0.17103,0.0279 0.21498,0.0718 0.0879,0.088 -0.0684,0.15051 -0.34727,0.13901 -0.30822,-0.0127 -0.37074,-0.0752 -0.15968,-0.15968 0.0955,-0.0382 0.20006,-0.055 0.29197,-0.0512 z"
         sodipodi:nodetypes="csscsssscccccccccccccsssscccccccccccsssssssscsscccccccsssscssssssccsscccssscssssssssssssscssss" /><path
         id="path32"
         style="fill:#72a6ae"
         d="m 149.09337,115.13198 -5.87096,0.27854 c -3.53839,0.16809 -5.98678,0.39435 -6.1619,0.56947 l -0.29042,0.29094 v 4.59455 c 0,2.52721 0.0978,4.69289 0.21756,4.81263 0.11974,0.11973 1.31035,0.2891 2.64583,0.3762 1.33547,0.0871 5.88109,0.17632 10.1012,0.19792 4.22002,0.0216 7.94079,-0.0327 8.26822,-0.1204 l 0.59532,-0.15968 -0.0119,-3.73931 c -0.006,-2.0567 -0.11076,-4.25532 -0.23254,-4.88549 -0.12179,-0.63017 -0.33176,-1.25575 -0.46612,-1.3901 -0.13435,-0.13436 -2.16783,-0.37497 -4.51911,-0.53485 z m -0.14211,0.88005 v 5.2e-4 c 1.64595,0.005 3.17027,0.0359 4.17597,0.0904 l 3.65714,0.19844 0.076,0.30231 c 0.0417,0.16643 0.23208,0.77907 0.42323,1.36115 0.19112,0.58208 0.32214,1.46472 0.29094,1.96164 -0.0319,0.50744 0.0932,0.99851 0.28525,1.12034 l 0.34158,0.21705 -0.32298,0.004 -0.32297,0.004 0.14159,1.85208 0.14159,1.85208 h -0.27285 c -0.15039,0 -0.20429,-0.18003 -0.11989,-0.39997 l 0.15296,-0.39998 -0.44131,0.1695 c -0.27106,0.1039 -0.37909,0.33212 -0.28009,0.59015 0.0884,0.2314 0.0875,0.34756 -0.002,0.25786 -0.0897,-0.0897 -0.48286,-0.0753 -0.87384,0.032 -0.39097,0.10738 -1.05077,0.079 -1.46658,-0.063 l -0.75603,-0.25839 -0.23254,0.36639 -0.23203,0.3669 -0.004,-0.33073 -0.004,-0.33073 -1.52135,0.0429 -1.52136,0.0429 1.45521,0.1788 1.45521,0.17828 -1.65365,0.0429 c -0.97158,0.0253 -1.65364,-0.0679 -1.65364,-0.22582 0,-0.1478 -0.35719,-0.24156 -0.79375,-0.20826 -0.43656,0.0333 -0.79375,0.15415 -0.79375,0.26872 0,0.11454 -1.51805,0.18691 -3.37344,0.16071 l 5.2e-4,5.2e-4 c -1.85539,-0.0262 -4.26618,-0.11554 -5.3573,-0.19844 l -1.98386,-0.15089 -0.22376,-1.5875 c -0.1228,-0.87312 -0.14208,-2.79664 -0.0429,-4.27468 l 0.18087,-2.68769 0.57154,-0.15813 c 0.31434,-0.087 3.01189,-0.23431 5.99498,-0.32711 1.49159,-0.0464 3.25919,-0.0663 4.90513,-0.061 z"
         sodipodi:nodetypes="ccccsssscccsscccccccssccccccscccccscccccccccccssscccccccsscc" /><path
         id="path33"
         style="fill:#6c9599"
         d="m 147.3312,115.44256 c -4.06251,0.004 -8.01388,0.10983 -8.78086,0.23409 -0.76694,0.12426 -1.48136,0.31248 -1.5875,0.41858 -0.10616,0.1061 -0.19275,2.25672 -0.19275,4.77904 0,2.52228 0.0978,4.68402 0.21756,4.80384 0.11974,0.11982 1.31035,0.2891 2.64583,0.3762 1.33547,0.0871 5.77694,0.17804 9.86968,0.20154 4.09277,0.0235 7.82637,-0.0345 8.29717,-0.12867 l 0.85628,-0.17105 -0.10697,-4.52531 c -0.0651,-2.76276 -0.22731,-4.74302 -0.41651,-5.08496 l -0.30954,-0.56017 -1.55288,-0.1757 c -0.85405,-0.0966 -4.87697,-0.17143 -8.93951,-0.16743 z m -2.65048,0.56379 c 1.68217,-0.0103 3.62217,0.002 5.41466,0.0377 3.58494,0.0724 6.71481,0.2145 6.95513,0.31626 0.24032,0.10177 0.51585,0.44487 0.61185,0.76223 0.096,0.31735 0.24396,2.22632 0.32866,4.24212 l 0.15399,3.66489 -0.36897,0.23358 c -0.20275,0.12842 -4.23798,0.21645 -8.96741,0.19585 -4.72938,-0.0206 -9.18775,-0.108 -9.90689,-0.1943 l -1.30741,-0.15658 -0.24288,-0.92605 c -0.13363,-0.50932 -0.18792,-2.39658 -0.12092,-4.19354 l 0.12144,-3.26698 0.34985,-0.21653 c 0.19238,-0.1189 1.59344,-0.30054 3.11299,-0.40411 0.75978,-0.0518 2.18374,-0.0843 3.86591,-0.0946 z"
         sodipodi:nodetypes="ssssssscccccssscssscssccscccsss" /><path
         id="path34"
         style="fill:#4a8a90"
         d="m 137.71422,115.5826 -0.45682,0.45682 -0.45682,0.45682 -0.009,4.36511 -0.009,4.3651 0.33177,0.33228 c 0.21062,0.21061 1.51471,0.38848 3.56567,0.48628 1.77829,0.0849 6.38868,0.14645 10.24485,0.13746 3.85604,-0.009 7.17669,-0.12315 7.3794,-0.25373 l 0.36845,-0.23771 -0.15813,-4.26021 c -0.0872,-2.34326 -0.23785,-4.5296 -0.33435,-4.85862 -0.0991,-0.33767 -0.47839,-0.68337 -0.87126,-0.79375 -0.38279,-0.10754 -4.94841,-0.19585 -10.14563,-0.19585 z m 0.27285,0.52917 h 9.50226 9.50227 l 0.47232,0.47232 0.47284,0.47232 v 4.1522 4.1522 l -1.05833,0.18914 c -0.58209,0.10397 -3.55865,0.17708 -6.61459,0.16278 -3.05593,-0.0143 -7.1369,-0.10964 -9.0687,-0.21187 -1.93174,-0.10224 -3.59867,-0.27226 -3.70416,-0.37776 -0.10552,-0.1055 -0.19172,-2.02145 -0.19172,-4.25762 v -4.06538 l 0.34365,-0.34417 z"
         sodipodi:nodetypes="ccccccsscccsssccccccccsssssccc" /></g></g></svg>
